<svg id="Capa_1" data-name="Capa 1" xmlns="http://www.w3.org/2000/svg" viewBox="0 0 269.31 100"><defs><style>.cls-1{fill:#fff;}.cls-2,.cls-3{fill:#1d5b4f;}.cls-3{font-size:46px;font-family:PTSans-Bold, PT Sans;font-weight:700;}.cls-4,.cls-6{fill:#1d1d1b;}.cls-5{letter-spacing:-0.04em;}.cls-6{letter-spacing:-0.04em;}</style></defs><rect class="cls-1" width="269.31" height="100"/><path class="cls-2" d="M52.72,24.72a2.65,2.65,0,0,0,.62.14h8.35c.72,0,.73,0,.73.72q0,6.42,0,12.82V73.89c0,.6,0,.6-.61.6H55.45a4.91,4.91,0,0,0-.65.06,3,3,0,0,0-.51-.07c-.79,0-1.58,0-2.36,0-.35,0-.46-.13-.46-.46,0-1.05,0-2.1,0-3.15,0-2.28,0-4.55,0-6.83,0-.39-.11-.53-.52-.52-1.24,0-2.48,0-3.72,0-.6,0-.6,0-.6.59q0,4.86,0,9.72v.47h-.12c0-.15,0-.31,0-.46V64.2c0-.66,0-.66-.68-.66-1.19,0-2.39,0-3.58,0-.43,0-.58.11-.58.56,0,3.24,0,6.48,0,9.71,0,.69,0,.69-.66.69H31.34c-.59,0-.6,0-.6-.61V25.59c0-.71,0-.71.73-.72H51.94A5.36,5.36,0,0,0,52.72,24.72ZM46.62,49h12a8.42,8.42,0,0,0,.87,0,.38.38,0,0,0,.25-.27c0-.1-.11-.24-.22-.31s-.22,0-.34,0c-.62,0-.63,0-.63-.65,0-1.92,0-3.85,0-5.77,0-.38-.11-.52-.5-.51-1.39,0-2.77,0-4.16,0-.72,0-.72,0-.72.7,0,1.9,0,3.79,0,5.69,0,.4-.12.54-.53.53-1,0-1.9,0-2.84,0-.42,0-.56-.12-.56-.54,0-2,0-3.91,0-5.86,0-.4-.12-.54-.53-.53-1.44,0-2.88,0-4.33,0-.58,0-.58,0-.58.57,0,1.94,0,3.88,0,5.82,0,.4-.12.54-.52.53q-1.43,0-2.85,0c-.41,0-.55-.12-.55-.55,0-2,0-3.9,0-5.86,0-.4-.14-.53-.54-.52-1.41,0-2.83,0-4.24,0-.61,0-.62,0-.62.63,0,1.93,0,3.85,0,5.78,0,.36-.11.55-.5.51a.73.73,0,0,0-.39,0,1.39,1.39,0,0,0-.32.32,1.16,1.16,0,0,0,.31.28,1.6,1.6,0,0,0,.44,0Zm-.06,11.3H59a2.63,2.63,0,0,0,.56,0,.45.45,0,0,0,.23-.3c0-.08-.11-.22-.21-.27a1,1,0,0,0-.38,0c-.6,0-.61,0-.61-.62,0-1.93,0-3.85,0-5.77,0-.43-.14-.56-.55-.55-1.42,0-2.83,0-4.25,0-.58,0-.59,0-.59.58V59c0,.54,0,.58-.56.58-.93,0-1.86,0-2.79,0-.46,0-.57-.16-.57-.58,0-2,0-3.91,0-5.87,0-.38-.13-.5-.51-.5-1.44,0-2.88,0-4.33,0-.6,0-.6,0-.6.61q0,2.91,0,5.82c0,.37-.12.51-.5.5-1,0-1.9,0-2.85,0-.54,0-.55,0-.56-.58V53.27c0-.57,0-.58-.59-.58-1.41,0-2.83,0-4.24,0-.46,0-.57.15-.56.58,0,1.94,0,3.88,0,5.81,0,.42-.13.57-.55.56-.25,0-.67-.17-.66.32s.41.29.65.29ZM44.72,28.74h0c0,.43,0,.87,0,1.31s-.12.54-.52.54c-.87,0-1.75,0-2.62,0-.41,0-.58.09-.56.53,0,.92,0,1.84,0,2.75,0,.33.1.44.42.44.95,0,1.9,0,2.85,0,.32,0,.43.11.43.43,0,.93,0,1.87,0,2.8,0,.36.12.48.48.48.92,0,1.84,0,2.75,0,.38,0,.48-.14.48-.49,0-.91,0-1.81,0-2.71,0-.42.14-.53.52-.52.91,0,1.81,0,2.72,0,.32,0,.46-.12.45-.47,0-.91,0-1.83,0-2.75,0-.34-.09-.51-.47-.5-.89,0-1.78,0-2.67,0-.4,0-.57-.12-.55-.55,0-.9,0-1.8,0-2.71,0-.3-.09-.46-.42-.45-1,0-1.95,0-2.93,0-.26,0-.36.11-.36.37C44.73,27.74,44.72,28.24,44.72,28.74Z"/><path class="cls-2" d="M10.1,56.2V38.57c0-.65,0-.65.64-.65h19c.58,0,.59,0,.59.59V51.15c0,3.72,0,7.44,0,11.16,0,3.87,0,7.75,0,11.63,0,.41-.12.56-.55.55q-9.57,0-19.16,0c-.45,0-.56-.14-.56-.58q0-8.85,0-17.72ZM22.48,64v6.33c0,.58,0,.58-.6.58H19.16c-.58,0-.58,0-.58-.57,0-1.94,0-3.88,0-5.82,0-.44-.13-.54-.54-.53q-2.19,0-4.38,0c-.44,0-.53.14-.53.55,0,1.94,0,3.88,0,5.82,0,.45-.15.58-.58.56-.24,0-.65-.19-.67.3s.42.34.68.34H28a2.07,2.07,0,0,0,.61,0,.45.45,0,0,0,.22-.34c0-.09-.14-.21-.24-.28a.45.45,0,0,0-.26,0c-.37,0-.48-.12-.48-.48,0-2,0-4,0-6,0-.35-.08-.45-.43-.45H22.48ZM20.37,49h8.05c.23,0,.46,0,.45-.32s-.22-.3-.43-.31c-.57,0-.57,0-.57-.6,0-1.94,0-3.88,0-5.82,0-.38-.11-.51-.5-.5-1.43,0-2.86,0-4.28,0-.61,0-.61,0-.61.6,0,1.94,0,3.87,0,5.81,0,.39-.13.52-.51.51-.92,0-1.84,0-2.75,0-.66,0-.66,0-.66-.64,0-1.93,0-3.85,0-5.78,0-.37-.1-.51-.49-.5-1.48,0-2.95,0-4.42,0-.44,0-.54.15-.53.56,0,1.78,0,3.56,0,5.34,0,.94,0,.94-.91,1.05a.41.41,0,0,0-.3.18c0,.1,0,.31.07.35a.86.86,0,0,0,.46.08Zm2.11,3.73v.65c0,1.91,0,3.82,0,5.73,0,.4-.12.57-.55.55-1,0-1.9,0-2.84,0-.4,0-.54-.11-.53-.52,0-2,0-3.93,0-5.9,0-.4-.13-.53-.53-.52-1.45,0-2.91,0-4.37,0-.46,0-.55.17-.55.58,0,1.82,0,3.65,0,5.47,0,.84,0,.84-.85.88,0,0-.1,0-.12,0s-.24.21-.25.33.13.23.23.28a1,1,0,0,0,.39,0H28.46c.22,0,.41,0,.42-.31s-.16-.32-.39-.33c-.62,0-.62,0-.62-.65,0-1.91,0-3.82,0-5.73,0-.46-.15-.56-.58-.55-1.41,0-2.83,0-4.24,0Z"/><path class="cls-2" d="M83.7,77.54a3.31,3.31,0,0,0-.55-.08H74.66a3.47,3.47,0,0,0-.55.08,3.6,3.6,0,0,0-.56-.08H20.12a7.78,7.78,0,0,0-.82.07,3.31,3.31,0,0,0-.55-.08h-12c-.67,0-.82-.14-.82-.81v-.92c0-.54.16-.71.7-.71H53.71c.24,0,.49,0,.73,0s.41,0,.61,0H70.8l15.44,0,.48,0a.5.5,0,0,1,.52.53c0,.47,0,.93,0,1.4s-.31.52-.66.53c-.79,0-1.58,0-2.37,0A4.5,4.5,0,0,0,83.7,77.54Z"/><path class="cls-2" d="M50.43,22.46c.23,0,.46.06.69.06H62.45a2.29,2.29,0,0,1,.64.07.9.9,0,0,1-.22,1.76c-.48,0-1,0-1.44,0H53c-.2,0-.4,0-.6.06s-.4-.06-.6-.06H30.89a5.4,5.4,0,0,1-.7,0A.89.89,0,0,1,30,22.64a2.23,2.23,0,0,1,.73-.11H49.83C50,22.52,50.23,22.48,50.43,22.46Z"/><path class="cls-2" d="M19.79,37.41H10.17a3.85,3.85,0,0,1-.48,0,.91.91,0,0,1-.92-.87.94.94,0,0,1,.9-.94c.21,0,.41,0,.61,0h16.8c.92,0,1.83,0,2.75,0,.43,0,.58.18.55.58,0,.16,0,.32,0,.48,0,.8,0,.8-.78.8H19.79Z"/><path class="cls-2" d="M83.05,56.23V73.81c0,.69,0,.69-.66.69H63.45c-.66,0-.66,0-.66-.65V39.33c0-.32,0-.64,0-1s.15-.47.47-.47H82.36c.69,0,.69,0,.69.71q0,8.8,0,17.62ZM70.75,42.57a4.79,4.79,0,0,0,0-.84.42.42,0,0,0-.29-.3,4.85,4.85,0,0,0-.85,0,2.14,2.14,0,0,0-.43-.07H66c-.57,0-.58,0-.58.59,0,1.81,0,3.61,0,5.42,0,.83,0,.82-.84.91-.07,0-.17,0-.2.05a.45.45,0,0,0-.13.29.37.37,0,0,0,.19.25.76.76,0,0,0,.34,0c3.92,0,7.83,0,11.75,0a3.78,3.78,0,0,0,.47-.06,3.55,3.55,0,0,0,.47.06q1.63,0,3.27,0c.2,0,.44.05.44-.27s-.21-.32-.44-.33c-.61,0-.61,0-.62-.66,0-1.92,0-3.84,0-5.77,0-.37-.11-.51-.5-.5-1.47,0-2.94,0-4.41,0-.38,0-.51.11-.51.5,0,1.28,0,2.56,0,3.85,0,.3,0,.6.06.91s-.07.78-.06,1.16-.12.52-.5.51c-.94,0-1.89,0-2.83,0-.59,0-.6,0-.6-.58V43.17C70.82,43,70.78,42.77,70.75,42.57Zm5.69,10.21c-.49,0-1-.06-1.47-.06-.07,0-.2.15-.2.23,0,.48,0,.95,0,1.43a4.6,4.6,0,0,0-.06.52c0,1.41,0,2.83,0,4.24,0,.36-.12.49-.48.49-1,0-1.9,0-2.84,0-.6,0-.61,0-.61-.62,0-1.92,0-3.85,0-5.77,0-.43-.14-.55-.56-.55-1.4,0-2.8,0-4.2,0-.62,0-.62,0-.63.64,0,1.91,0,3.82,0,5.72,0,.4-.1.6-.54.58-.24,0-.63-.15-.64.3s.42.31.67.31H80.74c.21,0,.47.07.49-.27s-.23-.34-.48-.35c-.57,0-.58,0-.58-.59,0-1.93,0-3.87,0-5.81,0-.39-.1-.55-.51-.54-.82,0-1.64,0-2.45,0C77,52.7,76.69,52.75,76.44,52.78Zm-3.7,18.76h7c.41,0,.82,0,1.23,0,.1,0,.25-.07.27-.14a.47.47,0,0,0,0-.37.56.56,0,0,0-.35-.11c-.63,0-.64,0-.64-.67V64.54c0-.54,0-.56-.56-.56-1.45,0-2.89,0-4.33,0-.4,0-.54.09-.53.51,0,2,0,3.93,0,5.9,0,.37-.11.52-.5.51-.93,0-1.86,0-2.8,0-.62,0-.63,0-.63-.63V64.49c0-.29,0-.52-.4-.51-1.47,0-3,0-4.42,0-.44,0-.58.16-.57.6,0,1.8,0,3.61,0,5.42,0,.82,0,.82-.81.89,0,0-.11,0-.13,0s-.22.21-.22.31a.42.42,0,0,0,.23.29,1,1,0,0,0,.43,0Z"/><path class="cls-2" d="M73.31,35.57H83a3.13,3.13,0,0,1,.61,0,.91.91,0,0,1-.07,1.8,3.31,3.31,0,0,1-.44,0H65.23c-.62,0-1.23,0-1.84,0s-.6-.07-.6-.61c0-.28,0-.56,0-.83s.12-.47.47-.47H73.31Z"/><text class="cls-3" transform="translate(104.37 68.74)">C<tspan class="cls-4" x="25.71" y="0">LINI</tspan><tspan class="cls-5" x="105.8" y="0">C</tspan><tspan class="cls-6" x="129.49" y="0">A</tspan></text><rect class="cls-2" x="92.15" width="9.19" height="100"/><rect class="cls-4" x="92.15" width="5.64" height="100"/></svg>